<?xml version="1.0"?>
<VTKFile type="UnstructuredGrid" version="0.1"> 
<UnstructuredGrid> 
<Piece NumberOfPoints="60" NumberOfCells="24"> 
<Points> 
<DataArray type="Float64" NumberOfComponents="3"> 
1 1 1 2 1 1 3 1 1 4 1 1 5 1 1 1 2 1 2 2 1 3 2 1 4 2 1 5 2 1 1 3 1 2 3 1 3 3 1 4 3 1 5 3 1 1 1 2 2 1 2 3 1 2 4 1 2 5 1 2 1 2 2 2 2 2 3 2 2 4 2 2 5 2 2 1 3 2 2 3 2 3 3 2 4 3 2 5 3 2 1 1 3 2 1 3 3 1 3 4 1 3 5 1 3 1 2 3 2 2 3 3 2 3 4 2 3 5 2 3 1 3 3 2 3 3 3 3 3 4 3 3 5 3 3 1 1 4 2 1 4 3 1 4 4 1 4 5 1 4 1 2 4 2 2 4 3 2 4 4 2 4 5 2 4 1 3 4 2 3 4 3 3 4 4 3 4 5 3 4 
</DataArray> 
</Points> 
<Cells> 
<DataArray type="Int32" Name="connectivity">
0 1 6 5 15 16 21 20 1 2 7 6 16 17 22 21 2 3 8 7 17 18 23 22 3 4 9 8 18 19 24 23 5 6 11 10 20 21 26 25 6 7 12 11 21 22 27 26 7 8 13 12 22 23 28 27 8 9 14 13 23 24 29 28 15 16 21 20 30 31 36 35 16 17 22 21 31 32 37 36 17 18 23 22 32 33 38 37 18 19 24 23 33 34 39 38 20 21 26 25 35 36 41 40 21 22 27 26 36 37 42 41 22 23 28 27 37 38 43 42 23 24 29 28 38 39 44 43 30 31 36 35 45 46 51 50 31 32 37 36 46 47 52 51 32 33 38 37 47 48 53 52 33 34 39 38 48 49 54 53 35 36 41 40 50 51 56 55 36 37 42 41 51 52 57 56 37 38 43 42 52 53 58 57 38 39 44 43 53 54 59 58 
 </DataArray> 
<DataArray type="Int32" Name="offsets"> 
8 16 24 32 40 48 56 64 72 80 88 96 104 112 120 128 136 144 152 160 168 176 184 192 </DataArray> 
<DataArray type="Int32" Name="types"> 
12 12 12 12 12 12 12 12 12 12 12 12 12 12 12 12 12 12 12 12 12 12 12 12 </DataArray>
</Cells> 
<PointData Scalars="Reaction_Force" Vectors="Displacement">
<DataArray type="Float64" Name="Displacement" format="ascii" NumberOfComponents="3"> 
0.460916 0.77016 0.322472 0.784739 0.471357 0.0357627 0.175874 0.721758 0.473486 0.152721 0.341125 0.607389 0.191745 0.738427 0.24285 0.917424 0.269062 0.7655 0.188662 0.287498 0.0911135 0.576209 0.683363 0.546593 0.425729 0.644443 0.647618 0.679017 0.635787 0.945174 0.208935 0.709282 0.236231 0.119396 0.607304 0.450138 0.458725 0.661945 0.770286 0.350218 0.66201 0.416159 0.841929 0.832917 0.256441 0.613461 0.582249 0.540739 0.869941 0.264779 0.318074 0.119215 0.939829 0.645552 0.479463 0.639317 0.544716 0.647311 0.543886 0.721047 0.522495 0.993705 0.218677 0.105798 0.109697 0.0635914 0.40458 0.448373 0.365816 0.763505 0.627896 0.77198 0.932854 0.972741 0.192028 0.138874 0.696266 0.09382 0.525404 0.530344 0.86114 0.484853 0.393456 0.671431 0.741258 0.520052 0.347713 0.149997 0.586092 0.262145 0.0444541 0.754933 0.242785 0.442402 0.687796 0.359228 0.73634 0.394707 0.683416 0.704047 0.442305 0.0195776 0.330858 0.424309 0.27027 0.197054 0.821721 0.429921 0.887771 0.391183 0.769114 0.396792 0.808514 0.755077 0.377396 0.216019 0.790407 0.949304 0.327565 0.671264 0.438645 0.833501 0.768854 0.167254 0.86198 0.989872 0.514423 0.884281 0.588026 0.154752 0.199863 0.406955 0.748706 0.825584 0.789963 0.318524 0.534064 0.0899507 0.111706 0.136293 0.678652 0.495177 0.18971 0.495006 0.147608 0.0549741 0.850713 0.56056 0.929609 0.696667 0.582791 0.815397 0.879014 0.988912 0.000522375 0.865439 0.612566 0.98995 0.52768 0.479523 0.801348 0.227843 0.498094 0.900852 0.574661 0.845178 0.73864 0.585987 0.246735 0.666416 0.0834828 0.62596 0.660945 0.729752 0.890752 0.982303 0.769029 0.581446 0.928313 0.58009 </DataArray> 
<DataArray type="Float64" Name="Reaction_Force" format="ascii" NumberOfComponents="3">
278.8536 -949.9785 -449.9414 -553.5785 472.9424 353.3990 784.3591 -826.1223 -156.1564 -940.4056 -562.7241 10.7106 -946.9281 -602.3247 299.7689 89.8830 -559.1188 178.5314 618.8609 -987.0025 611.6385 396.2788 -319.4990 -689.0410 914.4261 -326.8109 -814.5083 -806.5672 694.9887 207.4521 614.2565 459.4636 72.4562 946.2315 -242.9312 104.0813 658.8093 237.0395 723.4138 154.7043 409.1437 -908.3512 -544.2034 -421.2241 -840.4160 -534.4182 -797.9971 -444.0528 271.3689 -270.3356 -259.6381 -580.9859 -466.0444 873.3092 296.0708 218.2620 -657.7227 458.2536 -673.1950 -241.0891 979.0467 279.9995 113.8995 369.2285 685.7038 551.9998 -541.9039 -935.7995 -369.0939 -464.5182 -578.0343 885.8194 752.7353 -370.6442 310.8773 -208.7362 829.0952 -82.2963 -470.2397 -506.7450 122.7363 -474.5168 169.1720 795.6458 -201.1990 -561.3585 995.0752 19.0526 -818.1812 -905.7672 -780.7017 254.8921 584.1587 -155.6801 -872.9446 -236.7614 992.2428 58.2287 942.1568 721.5594 -977.0380 441.4436 363.4207 73.9407 -466.3496 281.9236 -776.8957 -130.4695 -92.5526 907.6319 751.7059 -473.2219 1.1722 -642.6962 825.2557 741.0371 -403.1104 277.8990 217.9404 -694.3215 525.0216 78.7581 557.2530 60.7073 -998.8562 -351.6879 -961.0465 858.1972 757.4438 663.3311 -384.9717 -884.1497 756.0192 893.8989 -828.6931 -28.0191 -861.5750 521.2043 531.6689 -743.2171 -49.4352 99.6072 -469.8867 744.8661 -153.7241 -576.4036 78.5922 459.8621 -597.6979 -376.5674 990.2987 299.7561 -123.7998 35.1517 -757.9916 -550.6053 -323.8289 176.6174 -539.7705 -559.5652 -858.0138 262.2059 -542.1164 810.8400 719.2708 -858.2853 -523.9907 337.9556 -571.5264 -735.3763 871.0285 142.0862 -54.6579 569.2388 614.9940 -619.1802 -806.1384 -137.8976 -152.8428 -65.9507
</DataArray></PointData> 
<CellData Scalars="Von_Mises_Stress" Tensors="Stress_Tensor">
<DataArray type="Float64" Name="Density" format="ascii" NumberOfComponents="1"> 
0.0169829 0.12086 0.862711 0.484297 0.844856 0.209405 0.552291 0.629883 0.031991 0.614713 0.362411 0.0495326 0.48957 0.19251 0.123084 0.205494 0.146515 0.189072 0.0426524 0.635198 0.281867 0.538597 0.695163 0.499116 </DataArray> 
<DataArray type="Float64" Name="Von_Mises_Stress" format="ascii" NumberOfComponents="1">
367.2472 339.9486 492.2410 58.2248 207.2844 176.2583 432.2195 131.8416 103.2024 229.8206 216.7220 146.4871 132.4052 462.4001 227.1341 432.0611 279.6594 34.7883 499.6484 419.6535 484.8082 463.9198 425.8609 91.4924
</DataArray><DataArray type="Float64" Name="Stress_Tensor" format="ascii" NumberOfComponents="9">
-5.7435 -114.5011 -39.5839 -176.5458 -48.4108 194.1235 -93.9188 113.6282 -17.9967 -30.7970 182.9271 198.1691 22.3073 87.3633 -138.0813 -81.3169 187.4837 31.6721 16.8781 99.1902 -177.1339 33.6710 1.1402 141.0880 -137.0269 184.3116 -167.9554 -125.6700 38.0140 70.0850 -105.9184 -152.0454 156.1149 -101.5139 37.8077 47.7526 -32.3100 33.4689 9.1131 173.8825 -118.2963 86.4767 -104.5256 -41.6857 68.6761 -80.0012 -73.5291 100.7458 -170.9828 -16.6858 199.3818 198.4386 -170.6957 -114.7383 -93.9198 173.3038 152.3457 151.7081 -52.1892 -136.9013 133.4980 81.4160 44.6711 194.8932 61.5905 -196.8708 126.8417 -80.2485 65.3555 175.5720 -146.2836 -153.8285 -157.1856 21.2895 -91.0607 41.9319 87.0449 -118.5611 53.6952 -94.4064 -4.5873 162.1346 138.4415 -163.0806 -30.5697 -89.3279 -198.5817 108.4477 54.8454 -95.2179 96.4924 20.6722 -28.9252 -196.1321 -169.9025 153.2426 161.5714 18.2361 133.8380 33.0038 -140.7625 -149.0218 -76.6967 159.5926 118.4489 144.2810 159.5699 -115.9694 -100.1881 -158.8826 112.0465 153.6539 -37.4490 48.2646 -138.1787 171.9524 145.8423 190.4824 124.3087 152.5665 -190.0855 94.6258 -67.1258 172.3264 120.8941 145.6256 124.2997 -93.2777 114.9498 -156.7617 148.8667 143.4373 -111.0265 126.6346 -15.8787 -77.9237 118.1382 -108.9618 -190.5342 -122.7481 -68.6952 145.7412 186.7556 -88.3500 56.5927 -40.1286 192.4599 14.4863 175.6949 -153.8633 188.1602 -128.5729 185.0137 -93.8135 -156.6390 -26.1745 91.4180 -74.5291 42.4835 4.5692 -45.9218 30.6352 -98.1110 83.5141 -199.3235 170.2301 15.3808 87.7720 96.7800 68.2514 -54.3114 -172.0105 65.6951 -67.9200 -74.4337 139.2061 87.9017 -79.8711 -76.2861 -36.6428 -39.0398 -81.7379 -149.0849 -31.8215 176.1455 70.9272 161.1222 46.2060 -79.6201 19.1749 -199.8376 -85.2345 -28.0447 31.9939 61.8822 -14.0047 -23.1361 -114.5194 -10.7255 160.4723 118.4099 -132.1234 -166.0818 6.1808 53.1763 -65.9247 127.3694 100.4553 69.1183 -110.1437 -120.3480 -190.2298 -102.0630 -9.9455 139.8951 -170.8687
</DataArray></CellData> 
</Piece> 
</UnstructuredGrid> 
</VTKFile>